<?xml version="1.0" standalone="no"?><!DOCTYPE svg PUBLIC "-//W3C//DTD SVG 1.1//EN" "http://www.w3.org/Graphics/SVG/1.1/DTD/svg11.dtd"><svg class="icon" width="200px" height="137.54px" viewBox="0 0 1489 1024" version="1.1" xmlns="http://www.w3.org/2000/svg"><path d="M930.909091 627.805091c61.533091 0 129.117091 8.936727 202.565818 26.810182 83.409455 20.852364 150.900364 48.686545 202.565818 83.409454 61.533091 40.680727 92.346182 86.388364 92.346182 137.029818v125.114182H433.431273V875.054545c0-50.641455 30.72-96.349091 92.346182-137.029818 51.665455-34.722909 119.156364-62.557091 202.565818-83.409454 73.541818-17.873455 141.032727-26.810182 202.565818-26.810182zM372.363636 377.576727h186.181819V502.690909H372.363636v186.181818H247.249455v-186.181818h-186.181819V377.576727h186.181819v-186.181818H372.363636v186.181818zM930.909091 502.690909c-44.683636 0-85.922909-11.170909-123.624727-33.512727a252.834909 252.834909 0 0 1-90.112-90.112 238.312727 238.312727 0 0 1-33.512728-123.624727c0-44.683636 11.170909-86.388364 33.512728-125.114182 22.341818-38.725818 52.410182-69.259636 90.112-91.601455A238.312727 238.312727 0 0 1 930.909091 5.213091c44.683636 0 85.922909 11.170909 123.624727 33.512727s67.770182 52.875636 90.112 91.601455c22.341818 38.725818 33.512727 80.430545 33.512727 125.114182 0 44.683636-11.170909 85.922909-33.512727 123.624727s-52.410182 67.770182-90.112 90.112A238.312727 238.312727 0 0 1 930.909091 502.690909z" /></svg>