<?xml version="1.0" standalone="no"?><!DOCTYPE svg PUBLIC "-//W3C//DTD SVG 1.1//EN" "http://www.w3.org/Graphics/SVG/1.1/DTD/svg11.dtd"><svg class="icon" width="200px" height="171.52px" viewBox="0 0 1194 1024" version="1.1" xmlns="http://www.w3.org/2000/svg"><path d="M1174.285797 0H422.117035v503.677503h752.168762V0z m-32.476232 471.23826H454.4823V32.402254H1141.846554V471.23826z"  /><path d="M990.710013 401.92111h130.45976v46.753937h-130.45976z"  /><path d="M194.709435 239.724895m-61.77142 0a61.77142 61.77142 0 1 0 123.54284 0 61.77142 61.77142 0 1 0-123.54284 0Z"  /><path d="M358.052305 630.697298v-172.701055h31.551509v-50.563791H271.165439l-2.552233-87.330733-50.045947-9.321196-22.785147 27.297789-23.561913-27.297789-54.484612 9.358185v87.293744H0v50.563791h31.55151v172.701055z"  /><path d="M924.795839 734.599046m-38.098541 0a38.098541 38.098541 0 1 0 76.197081 0 38.098541 38.098541 0 1 0-76.197081 0Z"  /><path d="M1099.605259 734.599046m-38.09854 0a38.098541 38.098541 0 1 0 76.197081 0 38.098541 38.098541 0 1 0-76.197081 0Z"  /><path d="M731.270048 734.599046m-38.098541 0a38.098541 38.098541 0 1 0 76.197081 0 38.098541 38.098541 0 1 0-76.197081 0Z"  /><path d="M524.761162 734.599046m-38.061552 0a38.061552 38.061552 0 1 0 76.123103 0 38.061552 38.061552 0 1 0-76.123103 0Z"  /><path d="M325.465106 731.011126m-38.09854 0a38.098541 38.098541 0 1 0 76.197081 0 38.098541 38.098541 0 1 0-76.197081 0Z"  /><path d="M127.16775 731.011126m-38.061551 0a38.061552 38.061552 0 1 0 76.123103 0 38.061552 38.061552 0 1 0-76.123103 0Z"  /><path d="M924.795839 853.7772m-54.817512 0a54.817512 54.817512 0 1 0 109.635024 0 54.817512 54.817512 0 1 0-109.635024 0Z"  /><path d="M945.916486 916.769253l-20.195925 24.264702-20.898714-24.264702-48.381448 9.21023v96.429995h136.747869l-2.182344-95.690218z"  /><path d="M726.091605 853.740211m-54.817512 0a54.817512 54.817512 0 1 0 109.635024 0 54.817512 54.817512 0 1 0-109.635024 0Z"  /><path d="M747.28623 916.769253l-20.195925 24.264702-20.898714-24.264702-48.418437 9.950007v95.690218h136.747869l-2.737177-95.690218z"  /><path d="M822.706545 777.247219m-40.09594 0a40.09594 40.09594 0 1 0 80.19188 0 40.09594 40.09594 0 1 0-80.19188 0Z"  /><path d="M872.641526 898.200838c-7.138853-13.500939-12.095362-28.148533-12.095362-44.497616 0-10.726774 2.848143-20.71377 6.177142-30.367866h-28.5924l-14.758561 17.75466-15.276405-17.75466H783.609305c4.068776 9.321196 6.399075 19.604103 6.399075 30.367866 0 17.606704-6.214131 33.770842-16.42306 46.975871h99.056206v-2.478255z"  /><path d="M524.761162 853.7772m-54.817512 0a54.817512 54.817512 0 1 0 109.635024 0 54.817512 54.817512 0 1 0-109.635024 0Z"  /><path d="M545.918798 916.769253l-20.195926 24.264702-20.898714-24.264702-48.418436 9.950007v95.690218h136.747869l-2.774166-95.690218z"  /><path d="M621.302124 777.247219m-40.09594 0a40.09594 40.09594 0 1 0 80.19188 0 40.09594 40.09594 0 1 0-80.19188 0Z"  /><path d="M671.237104 898.200838c-7.101864-13.500939-12.132351-28.148533-12.13235-44.497616 0-10.726774 2.922121-20.71377 6.177142-30.367866h-28.555411l-14.758561 17.75466-15.276405-17.75466H582.204884c4.068776 9.321196 6.362086 19.604103 6.362086 30.367866 0 17.606704-6.177142 33.770842-16.386071 46.975871h99.056205v-2.478255z"  /><path d="M1125.86736 851.224967m-54.817512 0a54.817512 54.817512 0 1 0 109.635024 0 54.817512 54.817512 0 1 0-109.635024 0Z"  /><path d="M1191.448635 924.499928l-44.460627-10.245918-20.195926 24.264701-20.898714-24.264701-48.418437 10.985695v94.65453h136.747869z"  /><path d="M1020.966912 774.731975m-40.132928 0a40.132929 40.132929 0 1 0 80.265857 0 40.132929 40.132929 0 1 0-80.265857 0Z"  /><path d="M1070.938882 895.685595c-7.101864-13.46395-12.16934-28.148533-12.16934-44.460628 0-10.763762 2.922121-20.71377 6.177142-30.404854h-28.518422l-14.721572 17.754659-15.313394-17.754659H981.980639c4.031787 9.395174 6.325098 19.604103 6.325097 30.367866 0 17.643693-6.177142 33.770842-16.349082 46.97587h99.093194l-0.110966-2.478254z"  /><path d="M328.535183 855.293744m-54.817512 0a54.817512 54.817512 0 1 0 109.635024 0 54.817512 54.817512 0 1 0-109.635024 0Z"  /><path d="M349.766797 918.285797l-20.232915 24.264701-20.898714-24.264701-48.418436 8.433463v97.243751h136.71088l-2.774166-97.243751z"  /><path d="M425.113134 778.800751m-40.09594 0a40.09594 40.09594 0 1 0 80.19188 0 40.09594 40.09594 0 1 0-80.19188 0Z"  /><path d="M475.048114 899.754371c-7.064875-13.500939-12.095362-28.148533-12.095362-44.423638 0-10.800751 2.885132-20.787747 6.177143-30.441844h-28.555412l-14.75856 17.75466-15.313394-17.75466h-24.449646c4.031787 9.395174 6.399075 19.604103 6.399075 30.404855 0 17.606704-6.214131 33.770842-16.386072 46.938881h99.019217l-0.036989-2.478254z"  /><path d="M127.16775 855.330733m-54.817512 0a54.817512 54.817512 0 1 0 109.635024 0 54.817512 54.817512 0 1 0-109.635024 0Z"  /><path d="M148.325387 918.285797l-20.195926 24.264701-20.898714-24.264701-49.713047 8.433463 1.331599 97.243751h136.71088l-2.848143-97.243751z"  /><path d="M223.708713 778.800751m-40.09594 0a40.09594 40.09594 0 1 0 80.19188 0 40.09594 40.09594 0 1 0-80.19188 0Z"  /><path d="M273.680682 899.754371c-7.138853-13.500939-12.132351-28.148533-12.132351-44.423638 0-10.800751 2.922121-20.787747 6.177142-30.441844h-28.555411l-14.721572 17.75466-15.313394-17.75466H184.722439c3.994798 9.395174 6.362086 19.604103 6.362086 30.404855 0 17.606704-6.214131 33.770842-16.42306 46.938881H273.717671l-0.036989-2.478254z"  /></svg>