<?xml version="1.0" standalone="no"?><!DOCTYPE svg PUBLIC "-//W3C//DTD SVG 1.1//EN" "http://www.w3.org/Graphics/SVG/1.1/DTD/svg11.dtd"><svg class="icon" width="200px" height="200.00px" viewBox="0 0 1024 1024" version="1.1" xmlns="http://www.w3.org/2000/svg"><path d="M876.24 500.27H147.76v-348h728.48z m-680.48-48h632.48v-252H195.76z" fill="#ffffff" /><path d="M289.16 253.32h445.69v48H289.16zM289.16 361.46h445.69v48H289.16zM314.3 729.71A73.38 73.38 0 0 1 241 656.4v-28.49a73.31 73.31 0 0 1 146.61 0v28.49a73.39 73.39 0 0 1-73.31 73.31z m0-127.1a25.33 25.33 0 0 0-25.3 25.3v28.49a25.31 25.31 0 1 0 50.61 0v-28.49a25.33 25.33 0 0 0-25.31-25.3zM468.86 912.85H152.43v-76.24a68.45 68.45 0 0 1 68.37-68.37h179.69a68.45 68.45 0 0 1 68.37 68.37z m-268.43-48h220.43v-28.24a20.4 20.4 0 0 0-20.37-20.37H220.8a20.4 20.4 0 0 0-20.37 20.37zM721 729.71a73.38 73.38 0 0 1-73.3-73.31v-28.49a73.31 73.31 0 0 1 146.61 0v28.49A73.39 73.39 0 0 1 721 729.71z m0-127.1a25.33 25.33 0 0 0-25.3 25.3v28.49a25.31 25.31 0 1 0 50.61 0v-28.49a25.33 25.33 0 0 0-25.31-25.3zM875.57 912.85H559.14v-76.24a68.45 68.45 0 0 1 68.37-68.37H807.2a68.45 68.45 0 0 1 68.37 68.37z m-268.43-48h220.43v-28.24a20.4 20.4 0 0 0-20.37-20.37H627.51a20.4 20.4 0 0 0-20.37 20.37z" fill="#ffffff" /></svg>