<?xml version="1.0" standalone="no"?><!DOCTYPE svg PUBLIC "-//W3C//DTD SVG 1.1//EN" "http://www.w3.org/Graphics/SVG/1.1/DTD/svg11.dtd"><svg class="icon" width="200px" height="200.00px" viewBox="0 0 1024 1024" version="1.1" xmlns="http://www.w3.org/2000/svg"><path d="M889.472 39.872H134.4a33.472 33.472 0 0 0-33.408 33.472V946.56c0 18.368 14.976 33.472 33.408 33.472h631.616a33.536 33.536 0 0 0 33.344-33.472V324.864h90.112c18.56 0 33.472-15.04 33.472-33.6V73.344a33.408 33.408 0 0 0-33.472-33.472z m-33.408 217.984h-90.048a33.472 33.472 0 0 0-33.728 33.408v621.568H167.936V106.816h688.128v151.04z m-596.8 536.128h381.824a13.44 13.44 0 0 0 0-26.752H259.264a13.44 13.44 0 0 0-13.376 13.376c0 7.424 5.952 13.376 13.376 13.376z m0-130.944h381.824a13.312 13.312 0 0 0 13.312-13.44 13.312 13.312 0 0 0-13.312-13.376H259.264a13.312 13.312 0 0 0-13.376 13.376c0 7.616 5.952 13.44 13.376 13.44z m0-130.88h381.824a13.312 13.312 0 0 0 13.312-13.312 13.312 13.312 0 0 0-13.312-13.44H259.264a13.312 13.312 0 1 0 0 26.752z m11.328-124.16c6.464 0 11.136-1.92 14.016-5.696 2.944-3.712 6.336-11.072 10.368-21.824l10.304-27.712h88l10.304 27.008c1.344 3.392 2.944 7.232 4.928 11.648a44.288 44.288 0 0 0 5.376 9.728c1.664 2.112 3.648 3.84 6.272 4.928a17.92 17.92 0 0 0 8.64 1.856c5.952 0 10.88-1.984 15.168-6.208a19.392 19.392 0 0 0 6.272-13.696c0-4.992-2.176-12.608-6.656-23.232l-56.576-139.52a358.016 358.016 0 0 0-6.464-16.768 67.2 67.2 0 0 0-6.336-11.776 30.272 30.272 0 0 0-9.92-8.896 30.08 30.08 0 0 0-15.296-3.456 30.4 30.4 0 0 0-15.04 3.456 29.568 29.568 0 0 0-9.92 9.152 77.696 77.696 0 0 0-7.04 14.08c-2.304 5.568-4.096 10.432-5.696 14.4L256 365.888c-2.24 5.632-3.84 10.048-4.864 13.184a29.312 29.312 0 0 0-1.536 9.216c0 5.056 2.176 9.6 6.4 13.76a20.864 20.864 0 0 0 14.592 5.952z m78.144-177.472l32.64 89.216h-64.64l32-89.216z m540.736 144h-59.008v270.72h59.008c18.56 0 33.472-14.976 33.472-33.6v-203.52a33.472 33.472 0 0 0-33.472-33.6z m0 320.32h-59.008v285.184h59.008c18.56 0 33.472-15.104 33.472-33.472v-218.048a33.472 33.472 0 0 0-33.472-33.664z" /></svg>