<?xml version="1.0" standalone="no"?><!DOCTYPE svg PUBLIC "-//W3C//DTD SVG 1.1//EN" "http://www.w3.org/Graphics/SVG/1.1/DTD/svg11.dtd"><svg class="icon" width="200px" height="200.00px" viewBox="0 0 1024 1024" version="1.1" xmlns="http://www.w3.org/2000/svg"><path d="M919.201 75.946h-813.859c-23.323 0-42.413 19.093-42.413 42.413v788.044c0 23.323 19.093 42.413 42.413 42.413h813.859c23.323 0 42.413-19.093 42.413-42.413v-788.044c0.109-23.323-18.98-42.413-42.413-42.413v0zM372.941 640.537l-29.287 34.928c-2.82 3.362-4.663 9.546-4.231 13.883l4.555 41.76c0.432 4.337-2.279 6.292-6.183 4.337l-39.266-19.307c-3.907-1.952-10.304-1.842-14.1 0l-38.291 19.2c-3.907 1.952-6.615 0-6.183-4.337l4.555-41.76c0.432-4.337-1.41-10.521-4.231-13.883l-29.287-34.928c-2.82-3.362-1.628-6.724 2.713-7.593l37.315-7.376c4.231-0.867 9.654-4.555 11.931-8.242l24.836-40.137c2.279-3.69 5.858-3.579 8.027 0.219l22.452 39.81c2.17 3.798 7.376 7.485 11.607 8.352l40.245 7.593c4.337 0.758 5.637 4.123 2.82 7.485v0zM372.941 321.633l-29.287 34.928c-2.82 3.362-4.663 9.546-4.231 13.883l4.555 41.76c0.432 4.337-2.279 6.292-6.183 4.337l-39.266-19.307c-3.907-1.952-10.304-1.952-14.1 0l-38.18 19.2c-3.907 1.952-6.615 0-6.183-4.337l4.555-41.76c0.432-4.337-1.41-10.521-4.231-13.883l-29.287-34.928c-2.82-3.362-1.628-6.724 2.713-7.593l37.315-7.376c4.231-0.867 9.654-4.555 11.931-8.242l24.836-40.137c2.279-3.69 5.858-3.579 8.027 0.109l22.452 39.81c2.17 3.798 7.376 7.485 11.607 8.352l40.245 7.593c4.231 0.867 5.531 4.231 2.713 7.593v0zM788.711 704.751h-312.829c-20.067 0-36.229-16.269-36.229-36.229s16.269-36.229 36.229-36.229h312.829c20.067 0 36.229 16.269 36.229 36.229s-16.269 36.229-36.229 36.229v0zM788.711 385.738h-312.829c-20.067 0-36.229-16.269-36.229-36.229 0-20.067 16.269-36.229 36.229-36.229h312.829c20.067 0 36.229 16.269 36.229 36.229 0 20.067-16.269 36.229-36.229 36.229v0zM788.711 385.738z" /></svg>