<?xml version="1.0" standalone="no"?><!DOCTYPE svg PUBLIC "-//W3C//DTD SVG 1.1//EN" "http://www.w3.org/Graphics/SVG/1.1/DTD/svg11.dtd"><svg class="icon" width="200px" height="200.00px" viewBox="0 0 1024 1024" version="1.1" xmlns="http://www.w3.org/2000/svg"><path d="M634.88 624.64V430.08a40.96 40.96 0 1 1 81.92 0v194.56h30.72a40.96 40.96 0 1 1 0 81.92h-471.04a40.96 40.96 0 1 1 0-81.92H307.2V491.52a40.96 40.96 0 1 1 81.92 0v133.12h81.92V307.2a40.96 40.96 0 1 1 81.92 0v317.44h81.92zM512 0C229.64224 0 0 229.64224 0 512s229.64224 512 512 512 512-229.64224 512-512S794.35776 0 512 0M73.29792 512c0-241.84832 196.608-438.70208 438.70208-438.70208 242.0736 0 438.70208 196.608 438.70208 438.70208 0 242.0736-196.85376 438.70208-438.70208 438.70208S73.29792 753.8688 73.29792 512z" /></svg>