<?xml version="1.0" standalone="no"?><!DOCTYPE svg PUBLIC "-//W3C//DTD SVG 1.1//EN" "http://www.w3.org/Graphics/SVG/1.1/DTD/svg11.dtd"><svg class="icon" width="200px" height="200.00px" viewBox="0 0 1024 1024" version="1.1" xmlns="http://www.w3.org/2000/svg"><path d="M83.5 924c-12.5 0-19.3-6.9-19.3-19.3v-214c0-12.5 6.9-19.3 19.3-19.3h71.3c12.5 0 19.3 6.9 19.3 19.3V780c0 19.8 14.5 34.2 34.4 34.2h606.9c19.9 0 34.4-14.4 34.4-34.2v-89.3c0-12.5 6.8-19.3 19.1-19.3h71.5c12.5 0 19.3 6.9 19.3 19.3v214.1c0 12.5-6.9 19.3-19.3 19.3H83.5zM476.4 641.9c-12.5 0-19.3-6.9-19.3-19.3V387.1c0-22.4-18.3-35.9-36.1-35.9-9.3 0-17.9 3.5-24.3 9.9l-35.6 35.8c-4.5 4.5-7.6 5.8-13.4 5.8-5.7 0-8.8-1.4-13.3-5.9l-50-50c-4.5-4.5-5.8-7.6-5.8-13.3 0-5.9 1.4-9.1 5.8-13.5l214.3-214.3c3.8-3.8 10.1-5.8 13.3-5.8 3.2 0 9.7 2 13.5 5.8L739.8 320c4.5 4.5 5.8 7.6 5.8 13.5 0 5.7-1.4 8.8-5.8 13.3l-50 50c-4.5 4.5-7.7 5.9-13.5 5.9-5.7 0-8.8-1.4-13.3-5.9l-36-36-1.3-1.1-0.2-0.2c-6.7-5-14.4-7.7-22.4-7.7-19.5 0-36 16.1-36 35.2v235.5c0 12.5-6.9 19.3-19.3 19.3h-71.4z" /></svg>