<?xml version="1.0" standalone="no"?><!DOCTYPE svg PUBLIC "-//W3C//DTD SVG 1.1//EN" "http://www.w3.org/Graphics/SVG/1.1/DTD/svg11.dtd"><svg class="icon" width="200px" height="200.00px" viewBox="0 0 1024 1024" version="1.1" xmlns="http://www.w3.org/2000/svg"><path d="M601.393471 333.318458c0-49.386804-40.051181-89.436962-89.436962-89.436962-49.256844 0-89.308025 40.051181-89.308025 89.436962 0 49.344848 40.051181 89.307002 89.308025 89.307002C561.343313 422.626483 601.393471 382.663306 601.393471 333.318458zM511.956509 377.950981c-24.606421 0-44.676525-20.024056-44.676525-44.6315 0-24.737404 20.069081-44.673455 44.676525-44.673455 24.737404 0 44.76146 19.936051 44.76146 44.673455C556.717969 357.925902 536.693914 377.950981 511.956509 377.950981zM780.008498 65.268516 243.903497 65.268516c-98.642624 0-178.614004 79.969333-178.614004 178.61298l0 536.105001c0 98.728582 79.970356 178.744987 178.614004 178.744987L780.008498 958.731484c98.730629 0 178.700985-80.015382 178.700985-178.744987L958.709483 243.881496C958.709483 145.237849 878.74015 65.268516 780.008498 65.268516zM869.446483 735.310995c0 74.03825-60.119239 134.113487-134.113487 134.113487L288.66598 869.424482c-74.081229 0-134.069485-60.075237-134.069485-134.113487L154.596496 288.645003c0-74.082252 59.988256-134.071532 134.069485-134.071532l446.667016 0c73.994248 0 134.113487 59.989279 134.113487 134.071532L869.446483 735.310995zM646.024971 422.626483 780.008498 780.072455 243.903497 780.072455l134.070508-357.445972 133.982504 0L646.024971 422.626483z" /></svg>